<svg xmlns="http://www.w3.org/2000/svg" width="232" height="232" viewBox="0 0 232 232" role="img" aria-label="QR Code">
<rect width="232" height="232" fill="#fbf8f1"></rect>
<g fill="#2b2620"><rect x="16" y="16" width="8" height="8"></rect><rect x="24" y="16" width="8" height="8"></rect><rect x="32" y="16" width="8" height="8"></rect><rect x="40" y="16" width="8" height="8"></rect><rect x="48" y="16" width="8" height="8"></rect><rect x="56" y="16" width="8" height="8"></rect><rect x="64" y="16" width="8" height="8"></rect><rect x="80" y="16" width="8" height="8"></rect><rect x="88" y="16" width="8" height="8"></rect><rect x="96" y="16" width="8" height="8"></rect><rect x="112" y="16" width="8" height="8"></rect><rect x="120" y="16" width="8" height="8"></rect><rect x="128" y="16" width="8" height="8"></rect><rect x="160" y="16" width="8" height="8"></rect><rect x="168" y="16" width="8" height="8"></rect><rect x="176" y="16" width="8" height="8"></rect><rect x="184" y="16" width="8" height="8"></rect><rect x="192" y="16" width="8" height="8"></rect><rect x="200" y="16" width="8" height="8"></rect><rect x="208" y="16" width="8" height="8"></rect><rect x="16" y="24" width="8" height="8"></rect><rect x="64" y="24" width="8" height="8"></rect><rect x="96" y="24" width="8" height="8"></rect><rect x="104" y="24" width="8" height="8"></rect><rect x="160" y="24" width="8" height="8"></rect><rect x="208" y="24" width="8" height="8"></rect><rect x="16" y="32" width="8" height="8"></rect><rect x="32" y="32" width="8" height="8"></rect><rect x="40" y="32" width="8" height="8"></rect><rect x="48" y="32" width="8" height="8"></rect><rect x="64" y="32" width="8" height="8"></rect><rect x="72" y="32" width="8" height="8"></rect><rect x="88" y="32" width="8" height="8"></rect><rect x="96" y="32" width="8" height="8"></rect><rect x="104" y="32" width="8" height="8"></rect><rect x="128" y="32" width="8" height="8"></rect><rect x="152" y="32" width="8" height="8"></rect><rect x="160" y="32" width="8" height="8"></rect><rect x="176" y="32" width="8" height="8"></rect><rect x="184" y="32" width="8" height="8"></rect><rect x="192" y="32" width="8" height="8"></rect><rect x="208" y="32" width="8" height="8"></rect><rect x="16" y="40" width="8" height="8"></rect><rect x="32" y="40" width="8" height="8"></rect><rect x="40" y="40" width="8" height="8"></rect><rect x="48" y="40" width="8" height="8"></rect><rect x="64" y="40" width="8" height="8"></rect><rect x="72" y="40" width="8" height="8"></rect><rect x="80" y="40" width="8" height="8"></rect><rect x="120" y="40" width="8" height="8"></rect><rect x="152" y="40" width="8" height="8"></rect><rect x="160" y="40" width="8" height="8"></rect><rect x="176" y="40" width="8" height="8"></rect><rect x="184" y="40" width="8" height="8"></rect><rect x="192" y="40" width="8" height="8"></rect><rect x="208" y="40" width="8" height="8"></rect><rect x="16" y="48" width="8" height="8"></rect><rect x="32" y="48" width="8" height="8"></rect><rect x="40" y="48" width="8" height="8"></rect><rect x="48" y="48" width="8" height="8"></rect><rect x="64" y="48" width="8" height="8"></rect><rect x="72" y="48" width="8" height="8"></rect><rect x="96" y="48" width="8" height="8"></rect><rect x="104" y="48" width="8" height="8"></rect><rect x="144" y="48" width="8" height="8"></rect><rect x="152" y="48" width="8" height="8"></rect><rect x="160" y="48" width="8" height="8"></rect><rect x="176" y="48" width="8" height="8"></rect><rect x="184" y="48" width="8" height="8"></rect><rect x="192" y="48" width="8" height="8"></rect><rect x="208" y="48" width="8" height="8"></rect><rect x="16" y="56" width="8" height="8"></rect><rect x="64" y="56" width="8" height="8"></rect><rect x="88" y="56" width="8" height="8"></rect><rect x="144" y="56" width="8" height="8"></rect><rect x="160" y="56" width="8" height="8"></rect><rect x="208" y="56" width="8" height="8"></rect><rect x="16" y="64" width="8" height="8"></rect><rect x="24" y="64" width="8" height="8"></rect><rect x="32" y="64" width="8" height="8"></rect><rect x="40" y="64" width="8" height="8"></rect><rect x="48" y="64" width="8" height="8"></rect><rect x="56" y="64" width="8" height="8"></rect><rect x="64" y="64" width="8" height="8"></rect><rect x="72" y="64" width="8" height="8"></rect><rect x="112" y="64" width="8" height="8"></rect><rect x="120" y="64" width="8" height="8"></rect><rect x="128" y="64" width="8" height="8"></rect><rect x="136" y="64" width="8" height="8"></rect><rect x="144" y="64" width="8" height="8"></rect><rect x="152" y="64" width="8" height="8"></rect><rect x="160" y="64" width="8" height="8"></rect><rect x="168" y="64" width="8" height="8"></rect><rect x="176" y="64" width="8" height="8"></rect><rect x="184" y="64" width="8" height="8"></rect><rect x="192" y="64" width="8" height="8"></rect><rect x="200" y="64" width="8" height="8"></rect><rect x="208" y="64" width="8" height="8"></rect><rect x="16" y="72" width="8" height="8"></rect><rect x="32" y="72" width="8" height="8"></rect><rect x="48" y="72" width="8" height="8"></rect><rect x="104" y="72" width="8" height="8"></rect><rect x="112" y="72" width="8" height="8"></rect><rect x="120" y="72" width="8" height="8"></rect><rect x="136" y="72" width="8" height="8"></rect><rect x="152" y="72" width="8" height="8"></rect><rect x="160" y="72" width="8" height="8"></rect><rect x="168" y="72" width="8" height="8"></rect><rect x="176" y="72" width="8" height="8"></rect><rect x="192" y="72" width="8" height="8"></rect><rect x="200" y="72" width="8" height="8"></rect><rect x="16" y="80" width="8" height="8"></rect><rect x="24" y="80" width="8" height="8"></rect><rect x="56" y="80" width="8" height="8"></rect><rect x="88" y="80" width="8" height="8"></rect><rect x="96" y="80" width="8" height="8"></rect><rect x="112" y="80" width="8" height="8"></rect><rect x="160" y="80" width="8" height="8"></rect><rect x="176" y="80" width="8" height="8"></rect><rect x="192" y="80" width="8" height="8"></rect><rect x="208" y="80" width="8" height="8"></rect><rect x="16" y="88" width="8" height="8"></rect><rect x="32" y="88" width="8" height="8"></rect><rect x="40" y="88" width="8" height="8"></rect><rect x="56" y="88" width="8" height="8"></rect><rect x="64" y="88" width="8" height="8"></rect><rect x="80" y="88" width="8" height="8"></rect><rect x="96" y="88" width="8" height="8"></rect><rect x="112" y="88" width="8" height="8"></rect><rect x="128" y="88" width="8" height="8"></rect><rect x="136" y="88" width="8" height="8"></rect><rect x="152" y="88" width="8" height="8"></rect><rect x="160" y="88" width="8" height="8"></rect><rect x="168" y="88" width="8" height="8"></rect><rect x="176" y="88" width="8" height="8"></rect><rect x="40" y="96" width="8" height="8"></rect><rect x="48" y="96" width="8" height="8"></rect><rect x="56" y="96" width="8" height="8"></rect><rect x="64" y="96" width="8" height="8"></rect><rect x="72" y="96" width="8" height="8"></rect><rect x="80" y="96" width="8" height="8"></rect><rect x="104" y="96" width="8" height="8"></rect><rect x="112" y="96" width="8" height="8"></rect><rect x="120" y="96" width="8" height="8"></rect><rect x="128" y="96" width="8" height="8"></rect><rect x="144" y="96" width="8" height="8"></rect><rect x="160" y="96" width="8" height="8"></rect><rect x="168" y="96" width="8" height="8"></rect><rect x="176" y="96" width="8" height="8"></rect><rect x="200" y="96" width="8" height="8"></rect><rect x="208" y="96" width="8" height="8"></rect><rect x="48" y="104" width="8" height="8"></rect><rect x="56" y="104" width="8" height="8"></rect><rect x="72" y="104" width="8" height="8"></rect><rect x="80" y="104" width="8" height="8"></rect><rect x="112" y="104" width="8" height="8"></rect><rect x="120" y="104" width="8" height="8"></rect><rect x="152" y="104" width="8" height="8"></rect><rect x="168" y="104" width="8" height="8"></rect><rect x="176" y="104" width="8" height="8"></rect><rect x="184" y="104" width="8" height="8"></rect><rect x="200" y="104" width="8" height="8"></rect><rect x="48" y="112" width="8" height="8"></rect><rect x="72" y="112" width="8" height="8"></rect><rect x="80" y="112" width="8" height="8"></rect><rect x="96" y="112" width="8" height="8"></rect><rect x="120" y="112" width="8" height="8"></rect><rect x="136" y="112" width="8" height="8"></rect><rect x="152" y="112" width="8" height="8"></rect><rect x="160" y="112" width="8" height="8"></rect><rect x="176" y="112" width="8" height="8"></rect><rect x="200" y="112" width="8" height="8"></rect><rect x="24" y="120" width="8" height="8"></rect><rect x="32" y="120" width="8" height="8"></rect><rect x="56" y="120" width="8" height="8"></rect><rect x="64" y="120" width="8" height="8"></rect><rect x="72" y="120" width="8" height="8"></rect><rect x="88" y="120" width="8" height="8"></rect><rect x="128" y="120" width="8" height="8"></rect><rect x="160" y="120" width="8" height="8"></rect><rect x="168" y="120" width="8" height="8"></rect><rect x="200" y="120" width="8" height="8"></rect><rect x="96" y="128" width="8" height="8"></rect><rect x="120" y="128" width="8" height="8"></rect><rect x="128" y="128" width="8" height="8"></rect><rect x="136" y="128" width="8" height="8"></rect><rect x="160" y="128" width="8" height="8"></rect><rect x="168" y="128" width="8" height="8"></rect><rect x="184" y="128" width="8" height="8"></rect><rect x="16" y="136" width="8" height="8"></rect><rect x="40" y="136" width="8" height="8"></rect><rect x="48" y="136" width="8" height="8"></rect><rect x="104" y="136" width="8" height="8"></rect><rect x="128" y="136" width="8" height="8"></rect><rect x="136" y="136" width="8" height="8"></rect><rect x="152" y="136" width="8" height="8"></rect><rect x="160" y="136" width="8" height="8"></rect><rect x="168" y="136" width="8" height="8"></rect><rect x="200" y="136" width="8" height="8"></rect><rect x="208" y="136" width="8" height="8"></rect><rect x="48" y="144" width="8" height="8"></rect><rect x="72" y="144" width="8" height="8"></rect><rect x="88" y="144" width="8" height="8"></rect><rect x="96" y="144" width="8" height="8"></rect><rect x="128" y="144" width="8" height="8"></rect><rect x="152" y="144" width="8" height="8"></rect><rect x="160" y="144" width="8" height="8"></rect><rect x="168" y="144" width="8" height="8"></rect><rect x="184" y="144" width="8" height="8"></rect><rect x="200" y="144" width="8" height="8"></rect><rect x="48" y="152" width="8" height="8"></rect><rect x="88" y="152" width="8" height="8"></rect><rect x="96" y="152" width="8" height="8"></rect><rect x="104" y="152" width="8" height="8"></rect><rect x="112" y="152" width="8" height="8"></rect><rect x="128" y="152" width="8" height="8"></rect><rect x="160" y="152" width="8" height="8"></rect><rect x="176" y="152" width="8" height="8"></rect><rect x="184" y="152" width="8" height="8"></rect><rect x="192" y="152" width="8" height="8"></rect><rect x="200" y="152" width="8" height="8"></rect><rect x="16" y="160" width="8" height="8"></rect><rect x="24" y="160" width="8" height="8"></rect><rect x="32" y="160" width="8" height="8"></rect><rect x="40" y="160" width="8" height="8"></rect><rect x="48" y="160" width="8" height="8"></rect><rect x="56" y="160" width="8" height="8"></rect><rect x="64" y="160" width="8" height="8"></rect><rect x="88" y="160" width="8" height="8"></rect><rect x="96" y="160" width="8" height="8"></rect><rect x="104" y="160" width="8" height="8"></rect><rect x="112" y="160" width="8" height="8"></rect><rect x="120" y="160" width="8" height="8"></rect><rect x="136" y="160" width="8" height="8"></rect><rect x="144" y="160" width="8" height="8"></rect><rect x="152" y="160" width="8" height="8"></rect><rect x="176" y="160" width="8" height="8"></rect><rect x="184" y="160" width="8" height="8"></rect><rect x="200" y="160" width="8" height="8"></rect><rect x="16" y="168" width="8" height="8"></rect><rect x="64" y="168" width="8" height="8"></rect><rect x="72" y="168" width="8" height="8"></rect><rect x="80" y="168" width="8" height="8"></rect><rect x="88" y="168" width="8" height="8"></rect><rect x="96" y="168" width="8" height="8"></rect><rect x="104" y="168" width="8" height="8"></rect><rect x="128" y="168" width="8" height="8"></rect><rect x="144" y="168" width="8" height="8"></rect><rect x="168" y="168" width="8" height="8"></rect><rect x="184" y="168" width="8" height="8"></rect><rect x="200" y="168" width="8" height="8"></rect><rect x="16" y="176" width="8" height="8"></rect><rect x="32" y="176" width="8" height="8"></rect><rect x="40" y="176" width="8" height="8"></rect><rect x="48" y="176" width="8" height="8"></rect><rect x="64" y="176" width="8" height="8"></rect><rect x="72" y="176" width="8" height="8"></rect><rect x="80" y="176" width="8" height="8"></rect><rect x="96" y="176" width="8" height="8"></rect><rect x="112" y="176" width="8" height="8"></rect><rect x="120" y="176" width="8" height="8"></rect><rect x="128" y="176" width="8" height="8"></rect><rect x="136" y="176" width="8" height="8"></rect><rect x="144" y="176" width="8" height="8"></rect><rect x="160" y="176" width="8" height="8"></rect><rect x="184" y="176" width="8" height="8"></rect><rect x="192" y="176" width="8" height="8"></rect><rect x="200" y="176" width="8" height="8"></rect><rect x="208" y="176" width="8" height="8"></rect><rect x="16" y="184" width="8" height="8"></rect><rect x="32" y="184" width="8" height="8"></rect><rect x="40" y="184" width="8" height="8"></rect><rect x="48" y="184" width="8" height="8"></rect><rect x="64" y="184" width="8" height="8"></rect><rect x="96" y="184" width="8" height="8"></rect><rect x="104" y="184" width="8" height="8"></rect><rect x="128" y="184" width="8" height="8"></rect><rect x="144" y="184" width="8" height="8"></rect><rect x="160" y="184" width="8" height="8"></rect><rect x="176" y="184" width="8" height="8"></rect><rect x="184" y="184" width="8" height="8"></rect><rect x="16" y="192" width="8" height="8"></rect><rect x="32" y="192" width="8" height="8"></rect><rect x="40" y="192" width="8" height="8"></rect><rect x="48" y="192" width="8" height="8"></rect><rect x="64" y="192" width="8" height="8"></rect><rect x="88" y="192" width="8" height="8"></rect><rect x="104" y="192" width="8" height="8"></rect><rect x="112" y="192" width="8" height="8"></rect><rect x="120" y="192" width="8" height="8"></rect><rect x="144" y="192" width="8" height="8"></rect><rect x="152" y="192" width="8" height="8"></rect><rect x="192" y="192" width="8" height="8"></rect><rect x="16" y="200" width="8" height="8"></rect><rect x="64" y="200" width="8" height="8"></rect><rect x="72" y="200" width="8" height="8"></rect><rect x="80" y="200" width="8" height="8"></rect><rect x="88" y="200" width="8" height="8"></rect><rect x="136" y="200" width="8" height="8"></rect><rect x="152" y="200" width="8" height="8"></rect><rect x="160" y="200" width="8" height="8"></rect><rect x="168" y="200" width="8" height="8"></rect><rect x="184" y="200" width="8" height="8"></rect><rect x="192" y="200" width="8" height="8"></rect><rect x="208" y="200" width="8" height="8"></rect><rect x="16" y="208" width="8" height="8"></rect><rect x="24" y="208" width="8" height="8"></rect><rect x="32" y="208" width="8" height="8"></rect><rect x="40" y="208" width="8" height="8"></rect><rect x="48" y="208" width="8" height="8"></rect><rect x="56" y="208" width="8" height="8"></rect><rect x="64" y="208" width="8" height="8"></rect><rect x="96" y="208" width="8" height="8"></rect><rect x="112" y="208" width="8" height="8"></rect><rect x="128" y="208" width="8" height="8"></rect><rect x="144" y="208" width="8" height="8"></rect><rect x="152" y="208" width="8" height="8"></rect><rect x="168" y="208" width="8" height="8"></rect><rect x="176" y="208" width="8" height="8"></rect><rect x="208" y="208" width="8" height="8"></rect></g>
</svg>