<svg xmlns="http://www.w3.org/2000/svg" width="512" height="512" viewBox="0 0 512 512" fill="none">
<defs><linearGradient id="g" x1="0" y1="0" x2="1" y2="1"><stop offset="0" stop-color="#1E3A8A"></stop><stop offset="0.5" stop-color="#4338CA"></stop><stop offset="1" stop-color="#DB2777"></stop></linearGradient></defs>
<rect width="512" height="512" rx="138" fill="url(#g)"></rect>
<g transform="translate(126 126) scale(2.6)">
<path d="M50 5 C54.5 31 69 45.5 95 50 C69 54.5 54.5 69 50 95 C45.5 69 31 54.5 5 50 C31 45.5 45.5 31 50 5 Z" fill="#ffffff"></path><path d="M82 14 C83.4 21.6 86.4 24.6 94 26 C86.4 27.4 83.4 30.4 82 38 C80.6 30.4 77.6 27.4 70 26 C77.6 24.6 80.6 21.6 82 14 Z" fill="#ffffff"></path>
</g></svg>